<mxfile host="app.diagrams.net" modified="2022-05-01T02:43:28.944Z" agent="5.0 (Windows NT 10.0; Win64; x64) AppleWebKit/537.36 (KHTML, like Gecko) Chrome/100.0.4896.127 Safari/537.36" etag="Y-_uENTn0QPmVVhxh-Hl" version="16.6.4" type="github">
  <diagram id="C5RBs43oDa-KdzZeNtuy" name="Page-1">
    <mxGraphModel dx="2500" dy="1003" grid="1" gridSize="10" guides="1" tooltips="1" connect="1" arrows="1" fold="1" page="1" pageScale="1" pageWidth="1100" pageHeight="850" math="0" shadow="0">
      <root>
        <mxCell id="WIyWlLk6GJQsqaUBKTNV-0" />
        <mxCell id="WIyWlLk6GJQsqaUBKTNV-1" parent="WIyWlLk6GJQsqaUBKTNV-0" />
        <mxCell id="WIyWlLk6GJQsqaUBKTNV-2" value="" style="rounded=0;html=1;jettySize=auto;orthogonalLoop=1;fontSize=11;endArrow=block;endFill=0;endSize=8;strokeWidth=1;shadow=0;labelBackgroundColor=none;edgeStyle=orthogonalEdgeStyle;" parent="WIyWlLk6GJQsqaUBKTNV-1" source="WIyWlLk6GJQsqaUBKTNV-3" target="2n9jpFvJ1BDSwHlZQIuS-0" edge="1">
          <mxGeometry relative="1" as="geometry">
            <mxPoint x="414" y="130" as="targetPoint" />
          </mxGeometry>
        </mxCell>
        <mxCell id="WIyWlLk6GJQsqaUBKTNV-3" value="Health Worker enters the app as User" style="rounded=1;whiteSpace=wrap;html=1;fontSize=12;glass=0;strokeWidth=1;shadow=0;fillColor=#60a917;fontColor=#ffffff;strokeColor=#2D7600;" parent="WIyWlLk6GJQsqaUBKTNV-1" vertex="1">
          <mxGeometry x="354" y="40" width="120" height="40" as="geometry" />
        </mxCell>
        <mxCell id="2n9jpFvJ1BDSwHlZQIuS-4" value="" style="edgeStyle=orthogonalEdgeStyle;rounded=0;orthogonalLoop=1;jettySize=auto;html=1;startArrow=none;" parent="WIyWlLk6GJQsqaUBKTNV-1" source="2n9jpFvJ1BDSwHlZQIuS-7" target="2n9jpFvJ1BDSwHlZQIuS-3" edge="1">
          <mxGeometry relative="1" as="geometry" />
        </mxCell>
        <mxCell id="2n9jpFvJ1BDSwHlZQIuS-6" value="" style="edgeStyle=orthogonalEdgeStyle;rounded=0;orthogonalLoop=1;jettySize=auto;html=1;startArrow=none;" parent="WIyWlLk6GJQsqaUBKTNV-1" source="2n9jpFvJ1BDSwHlZQIuS-8" target="2n9jpFvJ1BDSwHlZQIuS-5" edge="1">
          <mxGeometry relative="1" as="geometry" />
        </mxCell>
        <mxCell id="2n9jpFvJ1BDSwHlZQIuS-0" value="The worker has a CU account" style="rhombus;whiteSpace=wrap;html=1;fillColor=#fff2cc;strokeColor=#d6b656;" parent="WIyWlLk6GJQsqaUBKTNV-1" vertex="1">
          <mxGeometry x="316" y="130" width="196" height="80" as="geometry" />
        </mxCell>
        <mxCell id="2n9jpFvJ1BDSwHlZQIuS-10" value="" style="edgeStyle=orthogonalEdgeStyle;rounded=0;orthogonalLoop=1;jettySize=auto;html=1;" parent="WIyWlLk6GJQsqaUBKTNV-1" source="2n9jpFvJ1BDSwHlZQIuS-3" target="2n9jpFvJ1BDSwHlZQIuS-9" edge="1">
          <mxGeometry relative="1" as="geometry" />
        </mxCell>
        <mxCell id="2n9jpFvJ1BDSwHlZQIuS-3" value="Create an account" style="whiteSpace=wrap;html=1;" parent="WIyWlLk6GJQsqaUBKTNV-1" vertex="1">
          <mxGeometry x="190" y="220" width="120" height="60" as="geometry" />
        </mxCell>
        <mxCell id="2n9jpFvJ1BDSwHlZQIuS-17" value="" style="edgeStyle=orthogonalEdgeStyle;rounded=0;orthogonalLoop=1;jettySize=auto;html=1;startArrow=none;" parent="WIyWlLk6GJQsqaUBKTNV-1" source="kTaO1k_slomgpLLBo4a9-69" target="2n9jpFvJ1BDSwHlZQIuS-16" edge="1">
          <mxGeometry relative="1" as="geometry" />
        </mxCell>
        <mxCell id="2n9jpFvJ1BDSwHlZQIuS-5" value="Sign In" style="whiteSpace=wrap;html=1;" parent="WIyWlLk6GJQsqaUBKTNV-1" vertex="1">
          <mxGeometry x="640" y="220" width="120" height="60" as="geometry" />
        </mxCell>
        <mxCell id="2n9jpFvJ1BDSwHlZQIuS-31" value="" style="edgeStyle=orthogonalEdgeStyle;rounded=0;orthogonalLoop=1;jettySize=auto;html=1;" parent="WIyWlLk6GJQsqaUBKTNV-1" source="2n9jpFvJ1BDSwHlZQIuS-9" target="2n9jpFvJ1BDSwHlZQIuS-30" edge="1">
          <mxGeometry relative="1" as="geometry" />
        </mxCell>
        <mxCell id="2n9jpFvJ1BDSwHlZQIuS-9" value="Attempt register user:&lt;br&gt;Username&lt;br&gt;Password&lt;br&gt;Email&lt;br&gt;National ID/SSN&lt;br&gt;Professional License" style="shape=process;whiteSpace=wrap;html=1;backgroundOutline=1;align=left;fillColor=#f5f5f5;strokeColor=#666666;fontColor=#333333;" parent="WIyWlLk6GJQsqaUBKTNV-1" vertex="1">
          <mxGeometry x="170" y="310" width="160" height="110" as="geometry" />
        </mxCell>
        <mxCell id="2n9jpFvJ1BDSwHlZQIuS-7" value="No" style="text;html=1;strokeColor=none;fillColor=none;align=center;verticalAlign=middle;whiteSpace=wrap;rounded=0;" parent="WIyWlLk6GJQsqaUBKTNV-1" vertex="1">
          <mxGeometry x="220" y="155" width="60" height="30" as="geometry" />
        </mxCell>
        <mxCell id="2n9jpFvJ1BDSwHlZQIuS-13" value="" style="edgeStyle=orthogonalEdgeStyle;rounded=0;orthogonalLoop=1;jettySize=auto;html=1;endArrow=none;" parent="WIyWlLk6GJQsqaUBKTNV-1" source="2n9jpFvJ1BDSwHlZQIuS-0" target="2n9jpFvJ1BDSwHlZQIuS-7" edge="1">
          <mxGeometry relative="1" as="geometry">
            <mxPoint x="316" y="170" as="sourcePoint" />
            <mxPoint x="170" y="170" as="targetPoint" />
          </mxGeometry>
        </mxCell>
        <mxCell id="2n9jpFvJ1BDSwHlZQIuS-8" value="Yes" style="text;html=1;strokeColor=none;fillColor=none;align=center;verticalAlign=middle;whiteSpace=wrap;rounded=0;" parent="WIyWlLk6GJQsqaUBKTNV-1" vertex="1">
          <mxGeometry x="670" y="155" width="60" height="30" as="geometry" />
        </mxCell>
        <mxCell id="2n9jpFvJ1BDSwHlZQIuS-14" value="" style="edgeStyle=orthogonalEdgeStyle;rounded=0;orthogonalLoop=1;jettySize=auto;html=1;endArrow=none;" parent="WIyWlLk6GJQsqaUBKTNV-1" source="2n9jpFvJ1BDSwHlZQIuS-0" target="2n9jpFvJ1BDSwHlZQIuS-8" edge="1">
          <mxGeometry relative="1" as="geometry">
            <mxPoint x="512" y="170" as="sourcePoint" />
            <mxPoint x="660" y="170" as="targetPoint" />
          </mxGeometry>
        </mxCell>
        <mxCell id="2n9jpFvJ1BDSwHlZQIuS-23" value="" style="edgeStyle=orthogonalEdgeStyle;rounded=0;orthogonalLoop=1;jettySize=auto;html=1;startArrow=none;" parent="WIyWlLk6GJQsqaUBKTNV-1" source="2n9jpFvJ1BDSwHlZQIuS-24" target="2n9jpFvJ1BDSwHlZQIuS-22" edge="1">
          <mxGeometry relative="1" as="geometry" />
        </mxCell>
        <mxCell id="2n9jpFvJ1BDSwHlZQIuS-27" value="" style="edgeStyle=orthogonalEdgeStyle;rounded=0;orthogonalLoop=1;jettySize=auto;html=1;startArrow=none;" parent="WIyWlLk6GJQsqaUBKTNV-1" source="2n9jpFvJ1BDSwHlZQIuS-28" target="2n9jpFvJ1BDSwHlZQIuS-26" edge="1">
          <mxGeometry relative="1" as="geometry" />
        </mxCell>
        <mxCell id="2n9jpFvJ1BDSwHlZQIuS-16" value="Has valid credentials" style="rhombus;whiteSpace=wrap;html=1;fillColor=#fff2cc;strokeColor=#d6b656;" parent="WIyWlLk6GJQsqaUBKTNV-1" vertex="1">
          <mxGeometry x="640" y="470" width="120" height="80" as="geometry" />
        </mxCell>
        <mxCell id="2n9jpFvJ1BDSwHlZQIuS-41" style="edgeStyle=orthogonalEdgeStyle;rounded=0;orthogonalLoop=1;jettySize=auto;html=1;exitX=0;exitY=0.5;exitDx=0;exitDy=0;entryX=0;entryY=0.5;entryDx=0;entryDy=0;" parent="WIyWlLk6GJQsqaUBKTNV-1" source="2n9jpFvJ1BDSwHlZQIuS-22" target="kTaO1k_slomgpLLBo4a9-69" edge="1">
          <mxGeometry relative="1" as="geometry" />
        </mxCell>
        <mxCell id="2n9jpFvJ1BDSwHlZQIuS-22" value="Throw error message" style="whiteSpace=wrap;html=1;fillColor=#f8cecc;strokeColor=#b85450;" parent="WIyWlLk6GJQsqaUBKTNV-1" vertex="1">
          <mxGeometry x="480" y="560" width="120" height="60" as="geometry" />
        </mxCell>
        <mxCell id="2n9jpFvJ1BDSwHlZQIuS-24" value="No" style="text;html=1;strokeColor=none;fillColor=none;align=center;verticalAlign=middle;whiteSpace=wrap;rounded=0;" parent="WIyWlLk6GJQsqaUBKTNV-1" vertex="1">
          <mxGeometry x="510" y="495" width="60" height="30" as="geometry" />
        </mxCell>
        <mxCell id="2n9jpFvJ1BDSwHlZQIuS-25" value="" style="edgeStyle=orthogonalEdgeStyle;rounded=0;orthogonalLoop=1;jettySize=auto;html=1;endArrow=none;" parent="WIyWlLk6GJQsqaUBKTNV-1" source="2n9jpFvJ1BDSwHlZQIuS-16" target="2n9jpFvJ1BDSwHlZQIuS-24" edge="1">
          <mxGeometry relative="1" as="geometry">
            <mxPoint x="520" y="360" as="sourcePoint" />
            <mxPoint x="430" y="410" as="targetPoint" />
          </mxGeometry>
        </mxCell>
        <mxCell id="2n9jpFvJ1BDSwHlZQIuS-45" value="" style="edgeStyle=orthogonalEdgeStyle;rounded=0;orthogonalLoop=1;jettySize=auto;html=1;" parent="WIyWlLk6GJQsqaUBKTNV-1" source="2n9jpFvJ1BDSwHlZQIuS-26" target="2n9jpFvJ1BDSwHlZQIuS-44" edge="1">
          <mxGeometry relative="1" as="geometry" />
        </mxCell>
        <mxCell id="2n9jpFvJ1BDSwHlZQIuS-26" value="Render Dashboard:&lt;br&gt;renderDashboard() for user" style="whiteSpace=wrap;html=1;" parent="WIyWlLk6GJQsqaUBKTNV-1" vertex="1">
          <mxGeometry x="787.5" y="560" width="120" height="60" as="geometry" />
        </mxCell>
        <mxCell id="2n9jpFvJ1BDSwHlZQIuS-28" value="Yes" style="text;html=1;strokeColor=none;fillColor=none;align=center;verticalAlign=middle;whiteSpace=wrap;rounded=0;" parent="WIyWlLk6GJQsqaUBKTNV-1" vertex="1">
          <mxGeometry x="817.5" y="495" width="60" height="30" as="geometry" />
        </mxCell>
        <mxCell id="2n9jpFvJ1BDSwHlZQIuS-29" value="" style="edgeStyle=orthogonalEdgeStyle;rounded=0;orthogonalLoop=1;jettySize=auto;html=1;endArrow=none;" parent="WIyWlLk6GJQsqaUBKTNV-1" source="2n9jpFvJ1BDSwHlZQIuS-16" target="2n9jpFvJ1BDSwHlZQIuS-28" edge="1">
          <mxGeometry relative="1" as="geometry">
            <mxPoint x="640" y="360" as="sourcePoint" />
            <mxPoint x="730" y="410" as="targetPoint" />
          </mxGeometry>
        </mxCell>
        <mxCell id="2n9jpFvJ1BDSwHlZQIuS-33" value="" style="edgeStyle=orthogonalEdgeStyle;rounded=0;orthogonalLoop=1;jettySize=auto;html=1;startArrow=none;" parent="WIyWlLk6GJQsqaUBKTNV-1" source="2n9jpFvJ1BDSwHlZQIuS-37" target="2n9jpFvJ1BDSwHlZQIuS-32" edge="1">
          <mxGeometry relative="1" as="geometry" />
        </mxCell>
        <mxCell id="2n9jpFvJ1BDSwHlZQIuS-35" value="" style="edgeStyle=orthogonalEdgeStyle;rounded=0;orthogonalLoop=1;jettySize=auto;html=1;startArrow=none;" parent="WIyWlLk6GJQsqaUBKTNV-1" source="2n9jpFvJ1BDSwHlZQIuS-39" target="2n9jpFvJ1BDSwHlZQIuS-34" edge="1">
          <mxGeometry relative="1" as="geometry" />
        </mxCell>
        <mxCell id="2n9jpFvJ1BDSwHlZQIuS-30" value="Data is valid" style="rhombus;whiteSpace=wrap;html=1;align=center;fillColor=#fff2cc;strokeColor=#d6b656;" parent="WIyWlLk6GJQsqaUBKTNV-1" vertex="1">
          <mxGeometry x="210" y="470" width="80" height="80" as="geometry" />
        </mxCell>
        <mxCell id="kTaO1k_slomgpLLBo4a9-25" style="edgeStyle=orthogonalEdgeStyle;rounded=0;orthogonalLoop=1;jettySize=auto;html=1;exitX=0;exitY=0.5;exitDx=0;exitDy=0;entryX=0;entryY=0.5;entryDx=0;entryDy=0;" edge="1" parent="WIyWlLk6GJQsqaUBKTNV-1" source="2n9jpFvJ1BDSwHlZQIuS-32" target="2n9jpFvJ1BDSwHlZQIuS-9">
          <mxGeometry relative="1" as="geometry" />
        </mxCell>
        <mxCell id="2n9jpFvJ1BDSwHlZQIuS-32" value="Throw error message:&lt;br&gt;Invalid user data" style="whiteSpace=wrap;html=1;fillColor=#f8cecc;strokeColor=#b85450;" parent="WIyWlLk6GJQsqaUBKTNV-1" vertex="1">
          <mxGeometry x="70" y="560" width="120" height="60" as="geometry" />
        </mxCell>
        <mxCell id="2n9jpFvJ1BDSwHlZQIuS-34" value="Register user:&lt;br&gt;registerUser(data)" style="whiteSpace=wrap;html=1;fillColor=#d5e8d4;strokeColor=#82b366;" parent="WIyWlLk6GJQsqaUBKTNV-1" vertex="1">
          <mxGeometry x="310" y="560" width="120" height="60" as="geometry" />
        </mxCell>
        <mxCell id="2n9jpFvJ1BDSwHlZQIuS-37" value="No" style="text;html=1;strokeColor=none;fillColor=none;align=center;verticalAlign=middle;whiteSpace=wrap;rounded=0;" parent="WIyWlLk6GJQsqaUBKTNV-1" vertex="1">
          <mxGeometry x="100" y="495" width="60" height="30" as="geometry" />
        </mxCell>
        <mxCell id="2n9jpFvJ1BDSwHlZQIuS-38" value="" style="edgeStyle=orthogonalEdgeStyle;rounded=0;orthogonalLoop=1;jettySize=auto;html=1;endArrow=none;" parent="WIyWlLk6GJQsqaUBKTNV-1" source="2n9jpFvJ1BDSwHlZQIuS-30" target="2n9jpFvJ1BDSwHlZQIuS-37" edge="1">
          <mxGeometry relative="1" as="geometry">
            <mxPoint x="210" y="510" as="sourcePoint" />
            <mxPoint x="130" y="560" as="targetPoint" />
          </mxGeometry>
        </mxCell>
        <mxCell id="2n9jpFvJ1BDSwHlZQIuS-39" value="Yes" style="text;html=1;strokeColor=none;fillColor=none;align=center;verticalAlign=middle;whiteSpace=wrap;rounded=0;" parent="WIyWlLk6GJQsqaUBKTNV-1" vertex="1">
          <mxGeometry x="340" y="495" width="60" height="30" as="geometry" />
        </mxCell>
        <mxCell id="2n9jpFvJ1BDSwHlZQIuS-40" value="" style="edgeStyle=orthogonalEdgeStyle;rounded=0;orthogonalLoop=1;jettySize=auto;html=1;endArrow=none;" parent="WIyWlLk6GJQsqaUBKTNV-1" source="2n9jpFvJ1BDSwHlZQIuS-30" target="2n9jpFvJ1BDSwHlZQIuS-39" edge="1">
          <mxGeometry relative="1" as="geometry">
            <mxPoint x="290" y="510" as="sourcePoint" />
            <mxPoint x="370" y="560" as="targetPoint" />
          </mxGeometry>
        </mxCell>
        <mxCell id="kTaO1k_slomgpLLBo4a9-13" value="" style="edgeStyle=orthogonalEdgeStyle;rounded=0;orthogonalLoop=1;jettySize=auto;html=1;startArrow=none;" edge="1" parent="WIyWlLk6GJQsqaUBKTNV-1" source="kTaO1k_slomgpLLBo4a9-15" target="kTaO1k_slomgpLLBo4a9-12">
          <mxGeometry relative="1" as="geometry" />
        </mxCell>
        <mxCell id="kTaO1k_slomgpLLBo4a9-18" value="" style="edgeStyle=orthogonalEdgeStyle;rounded=0;orthogonalLoop=1;jettySize=auto;html=1;startArrow=none;" edge="1" parent="WIyWlLk6GJQsqaUBKTNV-1" source="kTaO1k_slomgpLLBo4a9-19" target="kTaO1k_slomgpLLBo4a9-17">
          <mxGeometry relative="1" as="geometry" />
        </mxCell>
        <mxCell id="2n9jpFvJ1BDSwHlZQIuS-44" value="User is searching for one of their previous patient&#39;s clinical history" style="rhombus;whiteSpace=wrap;html=1;fillColor=#fff2cc;strokeColor=#d6b656;" parent="WIyWlLk6GJQsqaUBKTNV-1" vertex="1">
          <mxGeometry x="740" y="680" width="215" height="100" as="geometry" />
        </mxCell>
        <mxCell id="kTaO1k_slomgpLLBo4a9-24" value="" style="edgeStyle=orthogonalEdgeStyle;rounded=0;orthogonalLoop=1;jettySize=auto;html=1;" edge="1" parent="WIyWlLk6GJQsqaUBKTNV-1" source="kTaO1k_slomgpLLBo4a9-12" target="kTaO1k_slomgpLLBo4a9-23">
          <mxGeometry relative="1" as="geometry" />
        </mxCell>
        <mxCell id="kTaO1k_slomgpLLBo4a9-12" value="Search for new patient&#39;s history/records" style="whiteSpace=wrap;html=1;" vertex="1" parent="WIyWlLk6GJQsqaUBKTNV-1">
          <mxGeometry x="480" y="820" width="120" height="60" as="geometry" />
        </mxCell>
        <mxCell id="kTaO1k_slomgpLLBo4a9-15" value="No" style="text;html=1;strokeColor=none;fillColor=none;align=center;verticalAlign=middle;whiteSpace=wrap;rounded=0;" vertex="1" parent="WIyWlLk6GJQsqaUBKTNV-1">
          <mxGeometry x="510" y="715" width="60" height="30" as="geometry" />
        </mxCell>
        <mxCell id="kTaO1k_slomgpLLBo4a9-16" value="" style="edgeStyle=orthogonalEdgeStyle;rounded=0;orthogonalLoop=1;jettySize=auto;html=1;endArrow=none;" edge="1" parent="WIyWlLk6GJQsqaUBKTNV-1" source="2n9jpFvJ1BDSwHlZQIuS-44" target="kTaO1k_slomgpLLBo4a9-15">
          <mxGeometry relative="1" as="geometry">
            <mxPoint x="662.5" y="570" as="sourcePoint" />
            <mxPoint x="550" y="650" as="targetPoint" />
          </mxGeometry>
        </mxCell>
        <mxCell id="kTaO1k_slomgpLLBo4a9-22" value="" style="edgeStyle=orthogonalEdgeStyle;rounded=0;orthogonalLoop=1;jettySize=auto;html=1;" edge="1" parent="WIyWlLk6GJQsqaUBKTNV-1" source="kTaO1k_slomgpLLBo4a9-17" target="kTaO1k_slomgpLLBo4a9-21">
          <mxGeometry relative="1" as="geometry" />
        </mxCell>
        <mxCell id="kTaO1k_slomgpLLBo4a9-17" value="Click on &quot;My Patients&quot;" style="whiteSpace=wrap;html=1;" vertex="1" parent="WIyWlLk6GJQsqaUBKTNV-1">
          <mxGeometry x="980" y="820" width="120" height="60" as="geometry" />
        </mxCell>
        <mxCell id="kTaO1k_slomgpLLBo4a9-19" value="Yes" style="text;html=1;strokeColor=none;fillColor=none;align=center;verticalAlign=middle;whiteSpace=wrap;rounded=0;" vertex="1" parent="WIyWlLk6GJQsqaUBKTNV-1">
          <mxGeometry x="1010" y="715" width="60" height="30" as="geometry" />
        </mxCell>
        <mxCell id="kTaO1k_slomgpLLBo4a9-20" value="" style="edgeStyle=orthogonalEdgeStyle;rounded=0;orthogonalLoop=1;jettySize=auto;html=1;endArrow=none;" edge="1" parent="WIyWlLk6GJQsqaUBKTNV-1" source="2n9jpFvJ1BDSwHlZQIuS-44" target="kTaO1k_slomgpLLBo4a9-19">
          <mxGeometry relative="1" as="geometry">
            <mxPoint x="877.5" y="570" as="sourcePoint" />
            <mxPoint x="1000" y="650" as="targetPoint" />
          </mxGeometry>
        </mxCell>
        <mxCell id="kTaO1k_slomgpLLBo4a9-21" value="Display the &quot;My Patients&quot; board:&lt;br&gt;renderPatients(user)" style="whiteSpace=wrap;html=1;fillColor=#d5e8d4;strokeColor=#82b366;" vertex="1" parent="WIyWlLk6GJQsqaUBKTNV-1">
          <mxGeometry x="980" y="950" width="120" height="60" as="geometry" />
        </mxCell>
        <mxCell id="kTaO1k_slomgpLLBo4a9-27" value="" style="edgeStyle=orthogonalEdgeStyle;rounded=0;orthogonalLoop=1;jettySize=auto;html=1;" edge="1" parent="WIyWlLk6GJQsqaUBKTNV-1" source="kTaO1k_slomgpLLBo4a9-23" target="kTaO1k_slomgpLLBo4a9-26">
          <mxGeometry relative="1" as="geometry" />
        </mxCell>
        <mxCell id="kTaO1k_slomgpLLBo4a9-23" value="Attempt patient search:&lt;br&gt;Complete Name&lt;br&gt;SSN&lt;br&gt;CURP (México)&lt;br&gt;Personal ID" style="shape=process;whiteSpace=wrap;html=1;backgroundOutline=1;fillColor=#f5f5f5;fontColor=#333333;strokeColor=#666666;align=left;" vertex="1" parent="WIyWlLk6GJQsqaUBKTNV-1">
          <mxGeometry x="450" y="950" width="180" height="100" as="geometry" />
        </mxCell>
        <mxCell id="kTaO1k_slomgpLLBo4a9-32" value="" style="edgeStyle=orthogonalEdgeStyle;rounded=0;orthogonalLoop=1;jettySize=auto;html=1;startArrow=none;" edge="1" parent="WIyWlLk6GJQsqaUBKTNV-1" source="kTaO1k_slomgpLLBo4a9-36" target="kTaO1k_slomgpLLBo4a9-31">
          <mxGeometry relative="1" as="geometry" />
        </mxCell>
        <mxCell id="kTaO1k_slomgpLLBo4a9-34" value="" style="edgeStyle=orthogonalEdgeStyle;rounded=0;orthogonalLoop=1;jettySize=auto;html=1;startArrow=none;" edge="1" parent="WIyWlLk6GJQsqaUBKTNV-1" source="kTaO1k_slomgpLLBo4a9-38" target="kTaO1k_slomgpLLBo4a9-33">
          <mxGeometry relative="1" as="geometry" />
        </mxCell>
        <mxCell id="kTaO1k_slomgpLLBo4a9-26" value="Data exists for a patient" style="rhombus;whiteSpace=wrap;html=1;align=center;fillColor=#fff2cc;strokeColor=#d6b656;" vertex="1" parent="WIyWlLk6GJQsqaUBKTNV-1">
          <mxGeometry x="470" y="1120" width="140" height="80" as="geometry" />
        </mxCell>
        <mxCell id="kTaO1k_slomgpLLBo4a9-41" value="" style="edgeStyle=orthogonalEdgeStyle;rounded=0;orthogonalLoop=1;jettySize=auto;html=1;" edge="1" parent="WIyWlLk6GJQsqaUBKTNV-1" source="kTaO1k_slomgpLLBo4a9-31" target="kTaO1k_slomgpLLBo4a9-40">
          <mxGeometry relative="1" as="geometry" />
        </mxCell>
        <mxCell id="kTaO1k_slomgpLLBo4a9-31" value="Register new patient:&lt;br&gt;Click on &quot;Add Patient&quot;" style="whiteSpace=wrap;html=1;" vertex="1" parent="WIyWlLk6GJQsqaUBKTNV-1">
          <mxGeometry x="260" y="1230" width="120" height="60" as="geometry" />
        </mxCell>
        <mxCell id="kTaO1k_slomgpLLBo4a9-43" value="" style="edgeStyle=orthogonalEdgeStyle;rounded=0;orthogonalLoop=1;jettySize=auto;html=1;" edge="1" parent="WIyWlLk6GJQsqaUBKTNV-1" source="kTaO1k_slomgpLLBo4a9-33" target="kTaO1k_slomgpLLBo4a9-42">
          <mxGeometry relative="1" as="geometry" />
        </mxCell>
        <mxCell id="kTaO1k_slomgpLLBo4a9-33" value="Render patient history: limited" style="whiteSpace=wrap;html=1;" vertex="1" parent="WIyWlLk6GJQsqaUBKTNV-1">
          <mxGeometry x="700" y="1230" width="120" height="60" as="geometry" />
        </mxCell>
        <mxCell id="kTaO1k_slomgpLLBo4a9-36" value="No" style="text;html=1;strokeColor=none;fillColor=none;align=center;verticalAlign=middle;whiteSpace=wrap;rounded=0;" vertex="1" parent="WIyWlLk6GJQsqaUBKTNV-1">
          <mxGeometry x="290" y="1145" width="60" height="30" as="geometry" />
        </mxCell>
        <mxCell id="kTaO1k_slomgpLLBo4a9-37" value="" style="edgeStyle=orthogonalEdgeStyle;rounded=0;orthogonalLoop=1;jettySize=auto;html=1;endArrow=none;" edge="1" parent="WIyWlLk6GJQsqaUBKTNV-1" source="kTaO1k_slomgpLLBo4a9-26" target="kTaO1k_slomgpLLBo4a9-36">
          <mxGeometry relative="1" as="geometry">
            <mxPoint x="480" y="930" as="sourcePoint" />
            <mxPoint x="370" y="1000" as="targetPoint" />
          </mxGeometry>
        </mxCell>
        <mxCell id="kTaO1k_slomgpLLBo4a9-38" value="Yes" style="text;html=1;strokeColor=none;fillColor=none;align=center;verticalAlign=middle;whiteSpace=wrap;rounded=0;" vertex="1" parent="WIyWlLk6GJQsqaUBKTNV-1">
          <mxGeometry x="730" y="1145" width="60" height="30" as="geometry" />
        </mxCell>
        <mxCell id="kTaO1k_slomgpLLBo4a9-39" value="" style="edgeStyle=orthogonalEdgeStyle;rounded=0;orthogonalLoop=1;jettySize=auto;html=1;endArrow=none;" edge="1" parent="WIyWlLk6GJQsqaUBKTNV-1" source="kTaO1k_slomgpLLBo4a9-26" target="kTaO1k_slomgpLLBo4a9-38">
          <mxGeometry relative="1" as="geometry">
            <mxPoint x="620" y="930" as="sourcePoint" />
            <mxPoint x="770" y="1000" as="targetPoint" />
          </mxGeometry>
        </mxCell>
        <mxCell id="kTaO1k_slomgpLLBo4a9-40" value="Display patient registration screen" style="whiteSpace=wrap;html=1;" vertex="1" parent="WIyWlLk6GJQsqaUBKTNV-1">
          <mxGeometry x="260" y="1350" width="120" height="60" as="geometry" />
        </mxCell>
        <mxCell id="kTaO1k_slomgpLLBo4a9-47" value="" style="edgeStyle=orthogonalEdgeStyle;rounded=0;orthogonalLoop=1;jettySize=auto;html=1;" edge="1" parent="WIyWlLk6GJQsqaUBKTNV-1" source="kTaO1k_slomgpLLBo4a9-42" target="kTaO1k_slomgpLLBo4a9-46">
          <mxGeometry relative="1" as="geometry" />
        </mxCell>
        <mxCell id="kTaO1k_slomgpLLBo4a9-42" value="Click on the user&#39;s profile" style="whiteSpace=wrap;html=1;" vertex="1" parent="WIyWlLk6GJQsqaUBKTNV-1">
          <mxGeometry x="700" y="1350" width="120" height="60" as="geometry" />
        </mxCell>
        <mxCell id="kTaO1k_slomgpLLBo4a9-72" value="" style="edgeStyle=orthogonalEdgeStyle;rounded=0;orthogonalLoop=1;jettySize=auto;html=1;" edge="1" parent="WIyWlLk6GJQsqaUBKTNV-1" source="kTaO1k_slomgpLLBo4a9-46" target="kTaO1k_slomgpLLBo4a9-71">
          <mxGeometry relative="1" as="geometry" />
        </mxCell>
        <mxCell id="kTaO1k_slomgpLLBo4a9-46" value="Input patient&#39;s security info:&lt;br&gt;SSN&lt;br&gt;CURP" style="shape=process;whiteSpace=wrap;html=1;backgroundOutline=1;fillColor=#f5f5f5;fontColor=#333333;strokeColor=#666666;align=left;" vertex="1" parent="WIyWlLk6GJQsqaUBKTNV-1">
          <mxGeometry x="670" y="1445" width="180" height="85" as="geometry" />
        </mxCell>
        <mxCell id="kTaO1k_slomgpLLBo4a9-69" value="Attempt to Sign In:&lt;br&gt;Username / Email&lt;br&gt;Password" style="shape=process;whiteSpace=wrap;html=1;backgroundOutline=1;fillColor=#f5f5f5;fontColor=#333333;strokeColor=#666666;align=left;" vertex="1" parent="WIyWlLk6GJQsqaUBKTNV-1">
          <mxGeometry x="620" y="310" width="160" height="110" as="geometry" />
        </mxCell>
        <mxCell id="kTaO1k_slomgpLLBo4a9-70" value="" style="edgeStyle=orthogonalEdgeStyle;rounded=0;orthogonalLoop=1;jettySize=auto;html=1;endArrow=none;" edge="1" parent="WIyWlLk6GJQsqaUBKTNV-1" source="2n9jpFvJ1BDSwHlZQIuS-5" target="kTaO1k_slomgpLLBo4a9-69">
          <mxGeometry relative="1" as="geometry">
            <mxPoint x="700" y="290" as="sourcePoint" />
            <mxPoint x="700" y="470" as="targetPoint" />
          </mxGeometry>
        </mxCell>
        <mxCell id="kTaO1k_slomgpLLBo4a9-74" value="" style="edgeStyle=orthogonalEdgeStyle;rounded=0;orthogonalLoop=1;jettySize=auto;html=1;startArrow=none;" edge="1" parent="WIyWlLk6GJQsqaUBKTNV-1" source="kTaO1k_slomgpLLBo4a9-75" target="kTaO1k_slomgpLLBo4a9-73">
          <mxGeometry relative="1" as="geometry" />
        </mxCell>
        <mxCell id="kTaO1k_slomgpLLBo4a9-79" value="" style="edgeStyle=orthogonalEdgeStyle;rounded=0;orthogonalLoop=1;jettySize=auto;html=1;" edge="1" parent="WIyWlLk6GJQsqaUBKTNV-1" source="kTaO1k_slomgpLLBo4a9-71" target="kTaO1k_slomgpLLBo4a9-78">
          <mxGeometry relative="1" as="geometry" />
        </mxCell>
        <mxCell id="kTaO1k_slomgpLLBo4a9-71" value="Data is valid" style="rhombus;whiteSpace=wrap;html=1;align=center;fillColor=#fff2cc;strokeColor=#d6b656;" vertex="1" parent="WIyWlLk6GJQsqaUBKTNV-1">
          <mxGeometry x="700" y="1560" width="120" height="80" as="geometry" />
        </mxCell>
        <mxCell id="kTaO1k_slomgpLLBo4a9-77" style="edgeStyle=orthogonalEdgeStyle;rounded=0;orthogonalLoop=1;jettySize=auto;html=1;exitX=0;exitY=0.5;exitDx=0;exitDy=0;entryX=0;entryY=0.5;entryDx=0;entryDy=0;" edge="1" parent="WIyWlLk6GJQsqaUBKTNV-1" source="kTaO1k_slomgpLLBo4a9-73" target="kTaO1k_slomgpLLBo4a9-46">
          <mxGeometry relative="1" as="geometry" />
        </mxCell>
        <mxCell id="kTaO1k_slomgpLLBo4a9-73" value="Throw error message:&lt;br&gt;Invalid security info" style="whiteSpace=wrap;html=1;fillColor=#f8cecc;strokeColor=#b85450;" vertex="1" parent="WIyWlLk6GJQsqaUBKTNV-1">
          <mxGeometry x="540" y="1670" width="130" height="60" as="geometry" />
        </mxCell>
        <mxCell id="kTaO1k_slomgpLLBo4a9-75" value="No" style="text;html=1;strokeColor=none;fillColor=none;align=center;verticalAlign=middle;whiteSpace=wrap;rounded=0;" vertex="1" parent="WIyWlLk6GJQsqaUBKTNV-1">
          <mxGeometry x="575" y="1585" width="60" height="30" as="geometry" />
        </mxCell>
        <mxCell id="kTaO1k_slomgpLLBo4a9-76" value="" style="edgeStyle=orthogonalEdgeStyle;rounded=0;orthogonalLoop=1;jettySize=auto;html=1;endArrow=none;" edge="1" parent="WIyWlLk6GJQsqaUBKTNV-1" source="kTaO1k_slomgpLLBo4a9-71" target="kTaO1k_slomgpLLBo4a9-75">
          <mxGeometry relative="1" as="geometry">
            <mxPoint x="700" y="1600" as="sourcePoint" />
            <mxPoint x="605" y="1670" as="targetPoint" />
          </mxGeometry>
        </mxCell>
        <mxCell id="kTaO1k_slomgpLLBo4a9-78" value="Render patient history: complete" style="whiteSpace=wrap;html=1;" vertex="1" parent="WIyWlLk6GJQsqaUBKTNV-1">
          <mxGeometry x="850" y="1680" width="120" height="60" as="geometry" />
        </mxCell>
      </root>
    </mxGraphModel>
  </diagram>
</mxfile>
